<svg xmlns="http://www.w3.org/2000/svg" width="20" height="20" viewBox="0 0 20 20">
  <g id="그룹_8818" data-name="그룹 8818" transform="translate(-417 -2915)">
    <rect id="사각형_341340" data-name="사각형 341340" width="20" height="20" transform="translate(417 2915)" fill="none"/>
    <path id="패스_11763" data-name="패스 11763" d="M12,22A10,10,0,1,1,22,12,10,10,0,0,1,12,22Zm0-2a8,8,0,1,0-8-8A8,8,0,0,0,12,20ZM7,12H9a3,3,0,0,0,6,0h2A5,5,0,0,1,7,12Z" transform="translate(415 2913)" fill="#04d3e0"/>
  </g>
</svg>
