<svg width="24" height="24" viewBox="0 0 24 24" fill="none" xmlns="http://www.w3.org/2000/svg">
<g clip-path="url(#clip0_1143_957)">
<rect x="3" y="3" width="18" height="18" fill="white"/>
<path d="M11.996 23.9986C14.1671 23.9986 16.3386 23.9935 18.5097 24C20.081 24.0046 21.4076 23.4285 22.4839 22.2971C23.4158 21.3176 23.904 20.1379 23.9687 18.7758C24.0058 17.9936 23.9951 17.2123 23.996 16.4305C24.0002 12.9064 24.0021 9.38233 23.9942 5.85826C23.9928 5.27981 23.966 4.69997 23.8179 4.1322C23.4366 2.66984 22.6088 1.5408 21.3206 0.760866C20.4854 0.255306 19.5753 -0.00142097 18.5943 -0.000492096C14.1768 0.00415039 9.75883 -0.00142097 5.34131 0.0115776C3.93929 0.0157566 2.72791 0.533386 1.70716 1.49901C0.822454 2.33604 0.287095 3.36016 0.080262 4.55931C0.0182584 4.91677 -0.00025008 5.27703 -0.00025008 5.6396C0.00160077 9.63442 0.000675346 13.6297 0.000212633 17.6245C0.000212633 17.9356 -0.00163822 18.2471 0.000675346 18.5581C0.023811 21.3501 2.09214 23.6625 4.85454 23.9791C5.06183 24.0028 5.27329 23.9977 5.48244 23.9977C7.65349 23.999 9.82454 23.9986 11.996 23.9981V23.9986ZM20.7367 11.9733C20.7367 13.2434 20.7358 14.5132 20.7372 15.7833C20.7372 16.1125 20.7117 16.4379 20.6418 16.7601C20.1486 19.0395 18.1321 20.7591 15.6705 20.7512C13.2477 20.7433 10.8254 20.7493 8.40262 20.7493C8.1509 20.7493 7.90104 20.7391 7.65071 20.708C6.53788 20.5715 5.57128 20.1129 4.77356 19.3339C3.76716 18.3511 3.23828 17.1412 3.23411 15.7234C3.22717 13.2425 3.23365 10.7611 3.2318 8.28022C3.23134 7.29649 3.46871 6.37868 4.00684 5.55418C4.99566 4.03843 6.39352 3.21439 8.20689 3.19722C10.7213 3.17354 13.2366 3.1935 15.7514 3.19164C16.0295 3.19164 16.3044 3.21625 16.5769 3.2636C19.039 3.69024 20.7756 5.89122 20.7399 8.21383C20.7205 9.46683 20.7367 10.7203 20.7367 11.9733Z" fill="#8D9296"/>
<path d="M19.1804 11.9192C19.1804 10.6746 19.1753 9.43041 19.1823 8.18577C19.1874 7.24661 18.8676 6.43464 18.2277 5.76242C17.6586 5.16447 16.9501 4.82604 16.1228 4.74294C15.8133 4.71184 15.5042 4.70998 15.1941 4.70998C12.8311 4.70952 10.4685 4.76662 8.10538 4.74294C6.5192 4.72716 4.96865 6.03354 4.82197 7.82134C4.79652 8.13238 4.7905 8.44203 4.79004 8.75308C4.79004 11.0065 4.79004 13.26 4.79004 15.5139C4.79004 16.3161 4.96911 17.0677 5.45172 17.7213C6.02271 18.4943 6.78618 18.9558 7.73845 19.0964C7.97119 19.1308 8.20486 19.1387 8.43992 19.1387C10.8622 19.1373 13.2841 19.141 15.7064 19.1354C16.5462 19.1336 17.3078 18.8875 17.9561 18.3346C18.7408 17.6647 19.161 16.811 19.1744 15.7789C19.1915 14.4925 19.1786 13.2061 19.1786 11.9192H19.18H19.1804ZM16.5106 11.9266C16.5809 14.3017 14.5542 16.4734 11.9954 16.4707C9.55136 16.4683 7.46406 14.5032 7.45943 11.9369C7.4548 9.40255 9.47177 7.38913 11.9982 7.3817C14.5838 7.37427 16.5832 9.5669 16.5106 11.9266ZM15.6615 16.6731C15.6582 16.0997 16.121 15.629 16.6956 15.6211C17.256 15.6137 17.74 16.0932 17.7446 16.661C17.7492 17.2246 17.2685 17.7121 16.7072 17.713C16.1348 17.7139 15.6643 17.2464 15.661 16.6731H15.6615Z" fill="#8D9296"/>
<path d="M14.9594 11.9222C15.0075 10.5192 13.8433 8.96077 12.0059 8.94313C10.3577 8.92734 9.00748 10.2899 9.01026 11.9417C9.01257 13.5628 10.3614 14.8984 11.9878 14.9091C13.6008 14.9198 14.9973 13.5461 14.9594 11.9222Z" fill="#8D9296"/>
</g>
<defs>
<clipPath id="clip0_1143_957">
<rect width="24" height="24" fill="white" transform="matrix(1 0 0 -1 0 24)"/>
</clipPath>
</defs>
</svg>
