<svg xmlns="http://www.w3.org/2000/svg" width="20" height="20" viewBox="0 0 20 20">
  <g id="그룹_8818" data-name="그룹 8818" transform="translate(-417 -2915)">
    <rect id="사각형_341340" data-name="사각형 341340" width="20" height="20" transform="translate(417 2915)" fill="none"/>
    <path id="패스_11787" data-name="패스 11787" d="M19.779,4.222a6,6,0,0,1,0,8.485l-7.071,7.071a6,6,0,0,1-8.485-8.485l7.071-7.071A6,6,0,0,1,19.779,4.222ZM14.122,15.535,8.466,9.878,5.636,12.707a4,4,0,1,0,5.657,5.657Zm4.242-9.9a4,4,0,0,0-5.657,0L9.88,8.464l5.657,5.657,2.828-2.828A4,4,0,0,0,18.364,5.636Z" transform="translate(415 2913)" fill="#04d3e0"/>
  </g>
</svg>
