<?xml version="1.0" encoding="utf-8"?>
<!-- Generator: Adobe Illustrator 27.2.0, SVG Export Plug-In . SVG Version: 6.00 Build 0)  -->
<svg version="1.1" id="Layer_1" xmlns="http://www.w3.org/2000/svg" xmlns:xlink="http://www.w3.org/1999/xlink" x="0px" y="0px"
	 viewBox="0 0 24 24" style="enable-background:new 0 0 24 24;" xml:space="preserve">
<style type="text/css">
	.st0{fill:#FFE812;}
	.st1{clip-path:url(#SVGID_00000031179616165261208610000014191545290211465093_);}
	.st2{clip-path:url(#SVGID_00000078735810952356488580000014761059808027484333_);}
	.st3{clip-path:url(#SVGID_00000089563795288077818650000013756004306324785042_);}
	.st4{clip-path:url(#SVGID_00000103977930148355469530000011720553509259329190_);}
	.st5{fill:none;}
</style>
<g id="그룹_7962" transform="translate(-4249 -15446)">
	<path id="사각형_340289" class="st0" d="M4253,15446h16c2.2,0,4,1.8,4,4v16c0,2.2-1.8,4-4,4h-16c-2.2,0-4-1.8-4-4v-16
		C4249,15447.8,4250.8,15446,4253,15446z"/>
	<path id="패스_10335" d="M4261,15450.5c-4.7,0-8.6,3-8.6,6.8c0.1,2.5,1.7,4.8,4.1,5.8c-0.2,0.7-0.6,2.4-0.7,2.8
		c-0.1,0.5,0.2,0.5,0.4,0.3l3.3-2.2c0.5,0.1,1.1,0.1,1.6,0.1c4.7,0,8.6-3,8.6-6.8S4265.7,15450.5,4261,15450.5"/>
	<g>
		<defs>
			<path id="SVGID_1_" d="M4255,15456h0.9v3c0,0.4,0.9,0.4,0.9,0v-3h0.9c0.2,0,0.4-0.2,0.4-0.4c0-0.2-0.2-0.4-0.4-0.4
				c-0.6,0-2.7,0-2.7,0c-0.2,0-0.4,0.2-0.4,0.5C4254.6,15455.8,4254.8,15456,4255,15456"/>
		</defs>
		<use xlink:href="#SVGID_1_"  style="overflow:visible;fill:#FFE812;"/>
		<clipPath id="SVGID_00000150100724470852944120000000795157858883833513_">
			<use xlink:href="#SVGID_1_"  style="overflow:visible;"/>
		</clipPath>
		
			<g id="그룹_7957" transform="translate(4254.626 15455.14)" style="clip-path:url(#SVGID_00000150100724470852944120000000795157858883833513_);">
			<rect id="사각형_340290" x="-0.1" y="0" class="st0" width="3.8" height="4.3"/>
		</g>
	</g>
	<g>
		<defs>
			<path id="SVGID_00000132066684236621558560000005253622628988439210_" d="M4259.2,15456.2l0.5,1.5h-1L4259.2,15456.2z
				 M4258.7,15455.4c-0.2,0.5-1,2.7-1.3,3.3c-0.2,0.4,0.6,0.8,0.8,0.4l0.2-0.6h1.6c0,0-0.1,0,0.2,0.6c0.2,0.5,1,0.1,0.8-0.3
				c-0.2-0.6-1.1-3-1.3-3.3c-0.1-0.2-0.4-0.3-0.6-0.3C4259,15455.1,4258.8,15455.2,4258.7,15455.4"/>
		</defs>
		<use xlink:href="#SVGID_00000132066684236621558560000005253622628988439210_"  style="overflow:visible;fill:#FFE812;"/>
		<clipPath id="SVGID_00000167378826479265599680000006213604901359691948_">
			<use xlink:href="#SVGID_00000132066684236621558560000005253622628988439210_"  style="overflow:visible;"/>
		</clipPath>
		
			<g id="그룹_7958" transform="translate(4257.402 15455.162)" style="clip-path:url(#SVGID_00000167378826479265599680000006213604901359691948_);">
			<rect id="사각형_340291" x="-0.2" y="0" class="st0" width="4" height="4.4"/>
		</g>
	</g>
	<g>
		<defs>
			<path id="SVGID_00000177444613616301587930000003346890298090634675_" d="M4261.3,15455.6v3.2c0,0-0.1,0.5,0.4,0.5h1.8
				c0.4,0,0.4-0.9,0-0.9h-1.2v-2.8c0-0.2-0.2-0.4-0.5-0.4c0,0,0,0,0,0C4261.6,15455.2,4261.3,15455.3,4261.3,15455.6"/>
		</defs>
		<use xlink:href="#SVGID_00000177444613616301587930000003346890298090634675_"  style="overflow:visible;fill:#FFE812;"/>
		<clipPath id="SVGID_00000098183448699785265900000007050281616143413898_">
			<use xlink:href="#SVGID_00000177444613616301587930000003346890298090634675_"  style="overflow:visible;"/>
		</clipPath>
		
			<g id="그룹_7959" transform="translate(4261.329 15455.169)" style="clip-path:url(#SVGID_00000098183448699785265900000007050281616143413898_);">
			<rect id="사각형_340292" x="-0.1" y="0" class="st0" width="2.6" height="4.1"/>
		</g>
	</g>
	<g>
		<defs>
			<path id="SVGID_00000023252652187053389350000011246297812842811555_" d="M4264,15455.5c0,0.3,0,3.4,0,3.6c0,0.4,0.9,0.4,0.9,0
				v-1.2l0.3-0.2l1.2,1.6c0.2,0.3,1-0.3,0.7-0.6l-1.2-1.6c0,0,0.8-0.9,1.2-1.2c0.2-0.2-0.4-0.8-0.6-0.6l-1.5,1.5c0,0,0-0.8,0-1.3
				c0-0.2-0.2-0.3-0.4-0.3S4264,15455.3,4264,15455.5"/>
		</defs>
		<use xlink:href="#SVGID_00000023252652187053389350000011246297812842811555_"  style="overflow:visible;fill:#FFE812;"/>
		<clipPath id="SVGID_00000157284901780997429320000005503286420746498740_">
			<use xlink:href="#SVGID_00000023252652187053389350000011246297812842811555_"  style="overflow:visible;"/>
		</clipPath>
		
			<g id="그룹_7960" transform="translate(4263.986 15455.172)" style="clip-path:url(#SVGID_00000157284901780997429320000005503286420746498740_);">
			<rect id="사각형_340293" x="0" y="-0.2" class="st0" width="3.3" height="4.5"/>
		</g>
	</g>
	<rect id="사각형_340295" x="4249" y="15446" class="st5" width="24" height="24"/>
</g>
</svg>
