<svg xmlns="http://www.w3.org/2000/svg" width="20" height="20" viewBox="0 0 20 20">
  <g id="그룹_8818" data-name="그룹 8818" transform="translate(-417 -2915)">
    <rect id="사각형_341340" data-name="사각형 341340" width="20" height="20" transform="translate(417 2915)" fill="none"/>
    <path id="패스_11765" data-name="패스 11765" d="M17.455,6.455H22V8.273H17.455ZM15.636,11H22v1.818H15.636Zm2.727,4.545H22v1.818H18.364ZM2,20.091a7.273,7.273,0,1,1,14.545,0H14.727a5.455,5.455,0,1,0-10.909,0Zm7.273-8.182a5.455,5.455,0,1,1,5.455-5.455A5.453,5.453,0,0,1,9.273,11.909Zm0-1.818A3.636,3.636,0,1,0,5.636,6.455,3.635,3.635,0,0,0,9.273,10.091Z" transform="translate(415 2914.455)" fill="#04d3e0"/>
  </g>
</svg>
