<?xml version="1.0" encoding="utf-8"?>
<!-- Generator: Adobe Illustrator 27.2.0, SVG Export Plug-In . SVG Version: 6.00 Build 0)  -->
<svg version="1.1" id="Layer_1" xmlns="http://www.w3.org/2000/svg" xmlns:xlink="http://www.w3.org/1999/xlink" x="0px" y="0px"
	 viewBox="0 0 24 24" style="enable-background:new 0 0 24 24;" xml:space="preserve">
<style type="text/css">
	.st0{fill:none;}
	.st1{fill:#FFFFFF;}
	.st2{fill:#2FB44A;}
</style>
<g id="그룹_7961" transform="translate(-4166 -15446)">
	<rect id="사각형_340294" x="4166" y="15446" class="st0" width="24" height="24"/>
	<g id="레이어_2" transform="translate(4166 15446)">
		<g id="Layer_1_00000076569893993477932340000000840081342078226606_" transform="translate(0)">
			<rect id="사각형_340486" x="2" y="4.4" class="st1" width="20" height="9"/>
			<path id="패스_10321" class="st2" d="M5.2,8.2C4.8,8.2,4.4,8.6,4.4,9c0,0.5,0.4,0.8,0.8,0.8S6.1,9.5,6.1,9
				c0-0.2-0.1-0.4-0.2-0.6C5.7,8.3,5.5,8.2,5.2,8.2z"/>
			<path id="패스_10322" class="st2" d="M13.4,8.1c-0.5,0-0.9,0.4-0.9,0.9s0.4,0.9,0.9,0.9s0.9-0.4,0.9-0.9l0,0
				C14.3,8.5,13.9,8.1,13.4,8.1z"/>
			<path id="패스_10323" class="st2" d="M20.8,0H3.2C1.4,0,0,1.4,0,3.2v10.4c0,1.8,1.4,3.2,3.2,3.2c0,0,0,0,0,0h6.2l2.1,5
				c0,0,0.1,0.4,0.5,0.4l0,0c0.4,0,0.5-0.4,0.5-0.4l2.1-5h6.2c1.8,0,3.2-1.4,3.2-3.2V3.2C24,1.4,22.6,0,20.8,0z M7.5,9.2
				c0,1.1-0.9,2-2,2c-0.4,0-0.9-0.2-1.2-0.5V11H2.9V5.1l0,0c0.1,0,1.4,0,1.4,0v2.3c0.3-0.6,1.3-0.6,1.3-0.6c1.2,0.1,2,1.2,1.9,2.3
				C7.5,9.2,7.5,9.2,7.5,9.2z M10.1,7V11H8.7V7C8.7,6.5,8,6.3,8,6.3V4.9c1.1-0.1,2,0.7,2.1,1.8C10.1,6.8,10.1,6.9,10.1,7z
				 M13.4,11.2c-1.2,0-2.3-0.9-2.4-2.2c0.1-1.2,1.1-2.2,2.4-2.2c1.2,0,2.3,0.9,2.4,2.2C15.7,10.3,14.6,11.2,13.4,11.2L13.4,11.2z
				 M21.1,11.2c0,1.1-0.8,2-1.9,2.1c0,0-0.1,0-0.1,0h-0.6v-1.3h0.4c0,0,0.9,0.1,0.9-1.3c0,0-0.2,0.5-1.4,0.5c-1-0.1-1.7-0.9-1.8-1.8
				V8.7c0-1.1,0.9-1.9,2-1.9c0.5,0,0.9,0.2,1.2,0.5V6.9h1.4V11.2z"/>
			<path id="패스_10324" class="st2" d="M18.9,8.1C18.4,8.1,18,8.5,18,9s0.4,0.9,0.9,0.9c0.5,0,0.9-0.4,0.9-0.9S19.3,8.1,18.9,8.1
				L18.9,8.1z"/>
		</g>
	</g>
</g>
</svg>
