<svg xmlns="http://www.w3.org/2000/svg" width="24" height="24" viewBox="0 0 24 24">
  <g id="그룹_7961" data-name="그룹 7961" transform="translate(-4166 -15446)">
    <rect id="사각형_340294" data-name="사각형 340294" width="24" height="24" transform="translate(4166 15446)" fill="none"/>
    <g id="레이어_2" data-name="레이어 2" transform="translate(4166 15446)">
      <g id="Layer_1" data-name="Layer 1" transform="translate(0)">
        <rect id="사각형_340486" data-name="사각형 340486" width="20" height="9" transform="translate(2 4.407)" fill="#fff"/>
        <path id="패스_10321" data-name="패스 10321" d="M26.837,48.45a.826.826,0,1,0,.585.241A.827.827,0,0,0,26.837,48.45Z" transform="translate(-21.6 -40.236)" fill="#8d9296"/>
        <path id="패스_10322" data-name="패스 10322" d="M74.64,47.94a.89.89,0,1,0,.89.89A.89.89,0,0,0,74.64,47.94Z" transform="translate(-61.246 -39.812)" fill="#8d9296"/>
        <path id="패스_10323" data-name="패스 10323" d="M20.791,0H3.211A3.211,3.211,0,0,0,0,3.211V13.645a3.209,3.209,0,0,0,3.211,3.209H9.42l2.109,4.976s.144.431.5.431h0c.353,0,.5-.431.5-.431l2.116-4.976h6.153A3.209,3.209,0,0,0,24,13.645V3.211A3.211,3.211,0,0,0,20.791,0ZM7.539,9.223A1.993,1.993,0,0,1,5.558,11.19a1.646,1.646,0,0,1-1.187-.509v.339H2.93V5.1h0c.088.015,1.436,0,1.436,0V7.361C4.7,6.787,5.68,6.8,5.68,6.8A2.109,2.109,0,0,1,7.539,9.223Zm2.53-2.245v4.055H8.663V7.019c0-.548-.678-.7-.678-.7V4.9A1.945,1.945,0,0,1,10.069,6.978Zm3.325,4.211a2.27,2.27,0,0,1-2.357-2.17,2.274,2.274,0,0,1,2.357-2.17A2.273,2.273,0,0,1,15.75,9.018,2.266,2.266,0,0,1,13.394,11.19Zm7.7,0a2,2,0,0,1-2.072,2.06h-.637V11.912h.383s.88.081.87-1.273c0,0-.17.549-1.405.549a1.855,1.855,0,0,1-1.75-1.834V8.708A2,2,0,0,1,18.444,6.8a1.434,1.434,0,0,1,1.224.546V6.907h1.426Z" transform="translate(0)" fill="#8d9296"/>
        <path id="패스_10324" data-name="패스 10324" d="M107.02,48.06a.87.87,0,1,0,.87.87A.87.87,0,0,0,107.02,48.06Z" transform="translate(-88.153 -39.912)" fill="#8d9296"/>
      </g>
    </g>
  </g>
</svg>
