<svg id="그룹_7950" data-name="그룹 7950" xmlns="http://www.w3.org/2000/svg" xmlns:xlink="http://www.w3.org/1999/xlink" width="24" height="24" viewBox="0 0 24 24">
  <defs>
    <clipPath id="clip-path">
      <rect id="사각형_340283" data-name="사각형 340283" width="24" height="24" fill="none"/>
    </clipPath>
  </defs>
  <g id="그룹_7949" data-name="그룹 7949" clip-path="url(#clip-path)">
    <path id="패스_10309" data-name="패스 10309" d="M21.037,24H2.963A2.963,2.963,0,0,1,0,21.037V2.963A2.963,2.963,0,0,1,2.963,0H21.037A2.963,2.963,0,0,1,24,2.963V21.037A2.963,2.963,0,0,1,21.037,24" fill="#8d9296"/>
    <path id="패스_10310" data-name="패스 10310" d="M25.8,32.431H15.666a3.259,3.259,0,0,1-3.259-3.259V23.953a3.259,3.259,0,0,1,3.259-3.259H25.8a3.259,3.259,0,0,1,3.259,3.259v5.218A3.259,3.259,0,0,1,25.8,32.431" transform="translate(-8.731 -14.562)" fill="#fff"/>
    <path id="다각형_6" data-name="다각형 6" d="M2.071.715a.5.5,0,0,1,.857,0L4.546,3.409a.5.5,0,0,1-.429.757H.883a.5.5,0,0,1-.429-.757Z" transform="translate(14.379 9.5) rotate(90)" fill="#a8aaaa"/>
  </g>
</svg>
